<svg id="Layer_1" data-name="Layer 1" xmlns="http://www.w3.org/2000/svg" viewBox="0 0 3000 3000"><defs><style>.cls-1{fill:#f1f1f1;}</style></defs><path class="cls-1" d="M1621.34,2356.29v-73.55c215.38-21,223.26-36.77,220.63-317.81l2.63-1071.65c-215.38,480.66-562.09,1231.87-654,1463h-68.3c-89.3-239-386.1-961.33-585.72-1436.74-44.66,919.3-47.28,1126.8-47.28,1176.71,2.62,147.08,68.29,168.1,246.9,186.48v73.55H113.68v-73.55C266,2267,329.06,2235.46,350.07,2093.63c15.76-115.57,18.39-210.13,86.68-1168.83,10.5-136.58-15.76-181.23-246.9-202.25V649h457l580.48,1331.68L1849.85,649H2309.5v73.54c-225.89,26.27-254.78,49.91-249.53,233.77l10.51,1008.61c10.51,281,18.39,294.17,249.53,317.81v73.55Z"/><path class="cls-1" d="M2850.91,643.71c-60.2,2.63-180.6,5.26-499.31,5.26H1859.44V791.43c8.14-33.09,33.71-37.4,109.71-37.4h378.91c198.31,0,251.42,21,318.71,110.32,49.57,57.78,77.9,120.82,109.78,194.36l109.77-10.5C2868.62,922.13,2854.45,738.27,2850.91,643.71Zm-230.18,585.73c-53.12,183.86-70.82,215.38-325.79,215.38h-435.5v107.69h435.5c251.43,0,276.21,42,322.25,225.89H2727v-549Z"/></svg>