<?xml version="1.0" encoding="utf-8"?>
<!-- Generator: Adobe Illustrator 24.3.0, SVG Export Plug-In . SVG Version: 6.00 Build 0)  -->
<svg version="1.1" xmlns="http://www.w3.org/2000/svg" xmlns:xlink="http://www.w3.org/1999/xlink" x="0px" y="0px"
	 viewBox="0 0 3000 3000" style="enable-background:new 0 0 3000 3000;" xml:space="preserve">
<style type="text/css">
	.st0{fill:#F1F1F1;}
	.st1{font-family:'Times-Roman';}
	.st2{font-size:1296px;}
</style>
<g id="Layer_1">
	<path class="st0" d="M1843.9,894.9c-215.4,480.7-561.5,1230.5-653.3,1461.4h-68.3c-89.3-239-386.1-961.3-585.7-1436.7
		c-44.7,919.3-47.3,1126.8-47.3,1176.7c2.6,147.1,68.3,168.1,246.9,186.5v73.6H113.7v-73.6c152.3-15.7,215.4-47.3,236.4-189.1
		c15.8-115.6,18.4-210.1,86.7-1168.8c10.5-136.6-15.8-181.2-246.9-202.2V649h457l580.5,1331.7l616.5-1318.9V894.9z"/>
	<path class="st0" d="M2309.5,722.5c-87.9,10.2-146,20.1-183.9,39.1V649h183.9V722.5z"/>
	<path class="st0" d="M1843.9,894.9c0.2-0.6,0.5-1.1,0.7-1.6l-0.7,301.5V894.9z"/>
	<text transform="matrix(0.8372 0 0 1 1714.8008 2381.4355)" class="st0 st1 st2">I</text>
</g>
<g id="Layer_2">
	<path class="st0" d="M2850.9,643.7c-60.2,2.6-180.6,5.3-499.3,5.3h-492.2v142.5c8.1-33.1,33.7-37.4,109.7-37.4h378.9
		c198.3,0,251.4,21,318.7,110.3c49.6,57.8,77.9,120.8,109.8,194.4l109.8-10.5C2868.6,922.1,2854.4,738.3,2850.9,643.7z
		 M2620.7,1229.4c-53.1,183.9-70.8,215.4-325.8,215.4h-435.5v107.7h435.5c251.4,0,276.2,42,322.2,225.9H2727v-549L2620.7,1229.4z"/>
</g>
</svg>
