<svg id="Layer_1" data-name="Layer 1" xmlns="http://www.w3.org/2000/svg" viewBox="0 0 2875.55 2655.77"><path d="M634,173.46c50.23,1.34,105.93,4.06,158.9,121.65,35.09,78.29,94.25,222.4,142.46,339.8,37.57,91.35,68.42,166.52,76.12,181.91,17.68,35.13,28.51,75.67,5.41,123-2.67,5.58-5.28,10.92-7.76,16.05-18.46,38.44-31.7,65.78-62.82,101.54-12.78,14.7-26.15,30.82-39.39,46.88-23.42,28.24-46.64,56.3-66.53,76.13-35.29,35.11-72,73-31.25,143.26S992.45,1625,1202.94,1811.56c226.28,201.45,423,286.35,522.48,329.26,19.31,8.33,35,15.09,46.45,20.8,70.63,35.14,112.71,29.73,153.41-17.57s176.57-205.45,224.13-275.72c46.11-70.28,93.67-59.47,158.83-35.14s412.83,194.61,483.41,229.75c13.95,6.95,27,13.21,39.13,19,49.12,23.56,82.52,39.57,96.67,63.45,17.68,29.73,17.68,170.3-40.7,335.18-59.75,164.89-347.67,323-478,335.19-12.4,1.16-24.66,2.65-37.32,4.17-119.43,14.46-271.09,32.8-811.37-179.88C894.28,2378.25,454.77,1728.67,365.93,1597.34c-7.05-10.36-11.87-17.51-14.42-21l-1.5-2c-40.44-54.09-287.79-385-287.79-726.44,0-326.67,160.92-496.74,234.37-574.31,4.63-4.92,8.94-9.47,12.78-13.66,65.23-70.27,141.29-87.83,188.78-87.83S593.19,172.12,634,173.46Z" transform="translate(-62.22 -172.12)"/></svg>