<svg id="Layer_1" data-name="Layer 1" xmlns="http://www.w3.org/2000/svg" viewBox="0 0 2936.09 2936.1"><defs><style>.cls-1{fill-rule:evenodd;}</style></defs><path class="cls-1" d="M1500,32C689.27,32,32,689.26,32,1500S689.27,2968.05,1500,2968.05,2968,2310.74,2968,1500c0-98.18-10.06-199.84-28.5-293a112.9,112.9,0,0,0-110.75-91H1500A112.93,112.93,0,0,0,1387.08,1229V1771A112.93,112.93,0,0,0,1500,1884h584.63a704.59,704.59,0,0,1-155.5,168.74c-.86.54-1.75,1.11-2.61,1.68l-.18.14.15.24A695.11,695.11,0,0,1,1500,2200.15c-386.66,0-700.16-313.5-700.16-700.15S1113.34,799.85,1500,799.85c178.22,0,340.39,67.1,464.34,177.36a112.92,112.92,0,0,0,154.9-4.52l383.31-383.3a112.86,112.86,0,0,0-2.87-162.46C2237.86,182.89,1887,32,1500,32Zm482.15,2258.42c-140.27,86-305.3,135.63-482.15,135.63-347.51,0-650.35-191.47-808.75-474.66L438.74,2145.89C656.82,2503.46,1050.56,2742.2,1500,2742.2c274.23,0,527.71-88.87,733.2-239.38Zm422.09,61.32c209.51-222.39,338-522,338-851.69a1313.87,1313.87,0,0,0-9.76-158.1H1612.92v316.2h652.92a112.93,112.93,0,0,1,106.47,150.62,929.32,929.32,0,0,1-210.38,337.92ZM448.94,837.64C669,489.23,1057.49,257.8,1500,257.8c284.85,0,546.63,96.61,756.3,258.44L2030.54,742c-150-105.48-332.79-168-530.54-168-337.86,0-633.47,181-795.19,451.26ZM345.15,1041.58a1246.78,1246.78,0,0,0-7.63,897.18l266.22-205.1a932.76,932.76,0,0,1,8.08-496.5Z" transform="translate(-31.96 -31.95)"/></svg>