<svg id="Layer_1" data-name="Layer 1" xmlns="http://www.w3.org/2000/svg" viewBox="0 0 2726.58 2731.05"><defs><style>.cls-1{fill-rule:evenodd;}</style></defs><path d="M2077.54,778.08a144.38,144.38,0,1,1,144.38,144.38A144.39,144.39,0,0,1,2077.54,778.08Z" transform="translate(-136.71 -134.48)"/><path class="cls-1" d="M1500,814.17c-378.77,0-685.83,307.06-685.83,685.83s307.06,685.83,685.83,685.83,685.82-307.06,685.82-685.83S1878.77,814.17,1500,814.17ZM1030.75,1500c0-259.16,210.09-469.25,469.25-469.25s469.25,210.09,469.25,469.25S1759.16,1969.25,1500,1969.25,1030.75,1759.16,1030.75,1500Z" transform="translate(-136.71 -134.48)"/><path class="cls-1" d="M2259.21,176.43c-500.52-55.94-1017.9-55.94-1518.42,0-290.51,32.47-525,261.32-559.19,553.34a6630.68,6630.68,0,0,0,0,1540.46c34.15,292,268.68,520.87,559.19,553.34,500.52,55.94,1017.9,55.94,1518.42,0,290.51-32.47,525-261.32,559.19-553.34a6630.68,6630.68,0,0,0,0-1540.46C2784.25,437.75,2549.72,208.9,2259.21,176.43ZM764.85,391.67c484.53-54.16,985.77-54.16,1470.3,0,192,21.46,345.89,173,368.14,363.26a6413.53,6413.53,0,0,1,0,1490.14c-22.25,190.25-176.09,341.8-368.14,363.27-484.53,54.15-985.77,54.15-1470.3,0-192.05-21.47-345.89-173-368.14-363.27a6413.53,6413.53,0,0,1,0-1490.14C419,564.68,572.8,413.13,764.85,391.67Z" transform="translate(-136.71 -134.48)"/></svg>